HIERARCHY
ROOT RootJoint
{
    OFFSET   0.000000   0.000000   0.000000
    CHANNELS 6 Xposition Yposition Zposition Xrotation Yrotation Zrotation
    JOINT pelvis_lowerback
    {
        OFFSET   0.000000   0.093605   0.000000
        CHANNELS 3 Xrotation Yrotation Zrotation
        JOINT lowerback_torso
        {
            OFFSET   0.000000   0.100000   0.000000
            CHANNELS 3 Xrotation Yrotation Zrotation
            JOINT torso_head
            {
                OFFSET   0.000000   0.282350   0.000000
                CHANNELS 3 Xrotation Yrotation Zrotation
                End Site
                {
                    OFFSET   0.000000   0.192650   0.000000
                }
            }
            JOINT rTorso_Clavicle
            {
                OFFSET  -0.001000   0.157500   0.000000
                CHANNELS 3 Xrotation Yrotation Zrotation
                JOINT rShoulder
                {
                    OFFSET  -0.117647   0.000000   0.000000
                    CHANNELS 3 Xrotation Yrotation Zrotation
                    JOINT rElbow
                    {
                        OFFSET  -0.245000   0.000000   0.000000
                        CHANNELS 3 Xrotation Yrotation Zrotation
                        JOINT rWrist
                        {
                            OFFSET  -0.240000   0.000000   0.000000
                            CHANNELS 3 Xrotation Yrotation Zrotation
                            End Site
                            {
                                OFFSET  -0.116353  -0.002500   0.000000
                            }
                        }
                    }
                }
            }
            JOINT lTorso_Clavicle
            {
                OFFSET   0.001000   0.157500   0.000000
                CHANNELS 3 Xrotation Yrotation Zrotation
                JOINT lShoulder
                {
                    OFFSET   0.117647   0.000000   0.000000
                    CHANNELS 3 Xrotation Yrotation Zrotation
                    JOINT lElbow
                    {
                        OFFSET   0.245000   0.000000   0.000000
                        CHANNELS 3 Xrotation Yrotation Zrotation
                        JOINT lWrist
                        {
                            OFFSET   0.240000   0.000000   0.000000
                            CHANNELS 3 Xrotation Yrotation Zrotation
                            End Site
                            {
                                OFFSET   0.116353  -0.002500   0.000000
                            }
                        }
                    }
                }
            }
        }
    }
    JOINT rHip
    {
        OFFSET  -0.100000  -0.051395   0.000000
        CHANNELS 3 Xrotation Yrotation Zrotation
        JOINT rKnee
        {
            OFFSET   0.000000  -0.410000   0.000000
            CHANNELS 3 Xrotation Yrotation Zrotation
            JOINT rAnkle
            {
                OFFSET   0.000000  -0.390000   0.000000
                CHANNELS 3 Xrotation Yrotation Zrotation
                JOINT rToeJoint
                {
                    OFFSET   0.000000  -0.050000   0.130000
                    CHANNELS 3 Xrotation Yrotation Zrotation
                    End Site
                    {
                        OFFSET  -0.010000   0.002000   0.060000
                    }
                }
            }
        }
    }
    JOINT lHip
    {
        OFFSET   0.100000  -0.051395   0.000000
        CHANNELS 3 Xrotation Yrotation Zrotation
        JOINT lKnee
        {
            OFFSET   0.000000  -0.410000   0.000000
            CHANNELS 3 Xrotation Yrotation Zrotation
            JOINT lAnkle
            {
                OFFSET   0.000000  -0.390000   0.000000
                CHANNELS 3 Xrotation Yrotation Zrotation
                JOINT lToeJoint
                {
                    OFFSET   0.000000  -0.050000   0.130000
                    CHANNELS 3 Xrotation Yrotation Zrotation
                    End Site
                    {
                        OFFSET   0.010000   0.002000   0.060000
                    }
                }
            }
        }
    }
}
MOTION
Frames: 5
Frame Time:   0.008333
 -2.853393   0.904916   3.903914 -170.760892 -17.557761 -174.215751  10.716773   2.779314  -0.167308  -1.157193   2.229417   0.011132  -0.323482  -1.243991   2.795620  -4.293897  -7.838330   2.002757 -22.990733 -11.031803  41.386220   0.008701  65.363280  -0.005284  -3.200174   3.325929 -24.285282   4.500053  14.422777  -3.108215  -0.342466  11.444520 -52.931256   0.019047 -51.433866   0.022372  -3.609428  -0.619897  19.475792   5.861730   5.583998  -4.274929  27.726271   0.004634  -0.005981 -16.569031   3.987855   0.979559 -12.297362  -0.000784   0.011263  -5.119374  -7.781715   0.473122  22.433378  -0.013756   0.015013  -9.248201   2.188098   0.485631  -2.088869   0.001366  -0.001208
 -2.857539   0.903241   3.900997 -170.792868 -17.577979 -174.097166  10.755217   2.809168  -0.116489  -1.277109   2.358799   0.041837  -0.376921  -1.323242   2.873844  -4.256955  -8.036987   2.217113 -22.547770 -11.149798  41.744854   0.005895  65.250497  -0.003771  -3.148870   3.521720 -24.151375   4.412927  14.780690  -3.282386  -0.830226  11.805016 -52.780055   0.019219 -51.097651   0.023146  -3.724020  -0.512439  19.605442   5.170073   5.355673  -4.496079  29.702934   0.003844  -0.010022 -16.718260   3.666043   1.271830 -13.847048   0.000655   0.017985  -4.709140  -7.591032   0.026373  22.272364  -0.011650   0.011914  -9.749118   2.080625   0.889628  -1.774995   0.001135  -0.000963
 -2.861747   0.901237   3.898056 -170.768271 -17.670162 -173.944151  10.811584   2.801198  -0.067654  -1.361768   2.450457   0.069983  -0.416884  -1.394158   2.936517  -4.190258  -8.255628   2.455876 -22.101640 -11.291970  42.088546   0.003509  65.119315  -0.002505  -3.139605   3.615371 -24.024766   4.300030  15.103637  -3.432066  -1.321806  12.132997 -52.613347   0.018907 -50.790825   0.023110  -3.829854  -0.447360  19.827610   4.482290   5.122466  -4.721988  31.726026   0.003413  -0.012315 -16.842343   3.340664   1.447718 -15.738495  -0.000168   0.024083  -4.247469  -7.417119  -0.422481  22.196992  -0.009625   0.009439 -10.218015   1.976569   1.265928  -1.516951   0.000969  -0.000602
 -2.866040   0.898925   3.895077 -170.731216 -17.839207 -173.790551  10.849601   2.759226  -0.002608  -1.439000   2.501012   0.112588  -0.451235  -1.460061   2.991472  -4.105372  -8.488993   2.701459 -21.663301 -11.445253  42.413974   0.001647  64.985164  -0.001551  -3.158982   3.640640 -23.910456   4.185598  15.398285  -3.564839  -1.791584  12.432795 -52.449610   0.018260 -50.508430   0.022517  -3.922784  -0.412577  20.061051   3.841857   4.905570  -4.950771  33.707315   0.003767  -0.012754 -16.956987   3.031139   1.599685 -17.624227  -0.001666   0.027126  -3.767346  -7.256569  -0.846631  22.152909  -0.007880   0.007468 -10.654137   1.876769   1.616030  -1.279736   0.000852  -0.000162
 -2.870312   0.898065   3.892286 -170.565692 -17.883612 -173.279118  11.031173   2.729869  -0.196588  -1.461105   2.551011   0.054539  -0.481114  -1.519931   3.035688  -4.003059  -8.690898   3.081577 -21.216996 -11.605649  42.785236  -0.000152  64.839798  -0.000682  -3.199600   3.610836 -23.777108   4.053897  15.638157  -3.758536  -2.253762  12.701443 -52.290873   0.017154 -50.224801   0.021527  -4.030029  -0.330559  20.297102   3.374816   4.707533  -5.532559  35.551029   0.003480  -0.014159 -16.887914   2.666768   1.756555 -18.418698  -0.002398   0.025940  -3.601502  -7.112375  -1.563124  22.517673  -0.005286   0.006230 -11.055027   1.748515   1.892643  -0.986435   0.000710  -0.000143
